<svg id="Layer_1" data-name="Layer 1" xmlns="http://www.w3.org/2000/svg" viewBox="0 0 619.56 80.67"><defs><style>.cls-1{fill:#fff;}.cls-2{fill:#e81d25;}</style></defs><title>myLogo</title><path class="cls-1" d="M49.33,36.92a6.06,6.06,0,0,1,3.77,1.24,6,6,0,0,1,2.2,3.26l22.53,73.24H60.26L44.37,57.54c-.3-1.28-.6-2.58-.9-3.89s-.56-2.57-.79-3.78h-3c-.23,1.21-.47,2.46-.73,3.78s-.59,2.61-1,3.89L22.06,114.66H4.37L27,41.42a6.1,6.1,0,0,1,6-4.5ZM61.27,81.2v13H20.94v-13Z" transform="translate(-4.37 -35.45)"/><path class="cls-1" d="M111.41,35.45q5.75,0,12.5.62a68,68,0,0,1,13.19,2.54L136,50c-3.31-.08-7.17-.15-11.6-.23s-8.79-.11-13.07-.11c-2.11,0-3.89.05-5.36.17a8.81,8.81,0,0,0-3.54.9,4,4,0,0,0-1.92,2.2,11.5,11.5,0,0,0-.56,4q0,3.95,1.85,5.75A17,17,0,0,0,108.14,66l15,4.84q9.35,3.15,13,8.56t3.61,14.2a33.09,33.09,0,0,1-1.58,11,14.14,14.14,0,0,1-5,6.87,21.81,21.81,0,0,1-8.9,3.55,72.76,72.76,0,0,1-13.52,1.07q-3.83,0-10.93-.5a113.5,113.5,0,0,1-16.22-2.54l1.13-12.17q6.65.12,11.54.28c3.27.12,6.07.19,8.4.23s4.35,0,6.08,0a33.84,33.84,0,0,0,7-.56,5.15,5.15,0,0,0,3.55-2.25,9.46,9.46,0,0,0,1-4.85,10.67,10.67,0,0,0-.74-4.33,5.59,5.59,0,0,0-2.36-2.6,19.82,19.82,0,0,0-4.45-1.74L99,79.73q-8.91-3.27-12.62-8.56t-3.72-14a31,31,0,0,1,1.63-11,13.86,13.86,0,0,1,5.07-6.59,21.92,21.92,0,0,1,8.9-3.27A82.26,82.26,0,0,1,111.41,35.45Z" transform="translate(-4.37 -35.45)"/><path class="cls-1" d="M169.09,36.92v77.74H151.86V36.92Zm28.85,29.85v13H168.19v-13Zm16-29.85v77.74H196.7V36.92Z" transform="translate(-4.37 -35.45)"/><path class="cls-1" d="M259.57,35.79q10.24,0,16.61,2.08a16.36,16.36,0,0,1,9.36,7.1c2,3.35,3,8,3,13.92a29.35,29.35,0,0,1-1.41,9.52A13.61,13.61,0,0,1,282.44,75a18.13,18.13,0,0,1-8.9,3.15v.57a13,13,0,0,1,4.22,1.57A14.11,14.11,0,0,1,281.87,84a15.79,15.79,0,0,1,2.82,6.47l6.76,24.23H273.31l-6-23.66c-.68-2.56-1.67-4.32-3-5.3a9,9,0,0,0-5.46-1.46q-7.66,0-12.9-.06c-3.49,0-6.42-.09-8.79-.17s-4.49-.15-6.36-.22l.33-12.51h28.06a21.55,21.55,0,0,0,7.15-1,6.09,6.09,0,0,0,3.72-3.43A17.88,17.88,0,0,0,271.17,60a17.82,17.82,0,0,0-1.07-6.93,6.15,6.15,0,0,0-3.72-3.38,21.85,21.85,0,0,0-7.15-1q-10.59,0-17.92.11t-10,.34L229.6,36.92q4.72-.57,8.9-.79c2.77-.15,5.82-.24,9.12-.28S254.91,35.79,259.57,35.79Zm-13,1.13v77.74h-17V36.92Z" transform="translate(-4.37 -35.45)"/><path class="cls-1" d="M339.67,36.92a6.06,6.06,0,0,1,3.78,1.24,6,6,0,0,1,2.19,3.26l22.54,73.24H350.6L334.71,57.54c-.3-1.28-.6-2.58-.9-3.89s-.56-2.57-.79-3.78h-3c-.22,1.21-.47,2.46-.73,3.78s-.58,2.61-1,3.89l-15.88,57.12H294.72l22.64-73.24a6,6,0,0,1,2.2-3.26,6.06,6.06,0,0,1,3.77-1.24ZM351.61,81.2v13H311.28v-13Z" transform="translate(-4.37 -35.45)"/><path class="cls-1" d="M392.63,36.58q6,0,12.22.06c4.17,0,8.26.15,12.28.33s7.76.47,11.21.85l-.9,12.39H399.27a6.54,6.54,0,0,0-4.62,1.47A5.54,5.54,0,0,0,393.08,56v58.7H375.84V52.46q0-7.2,4.62-11.54T392.63,36.58Zm-14.76,32.9h45.4V81.65h-45.4Z" transform="translate(-4.37 -35.45)"/><path class="cls-2" d="M454.82,36.58q6.3,0,12.73.06t12.62.28q6.19.22,11.6.79L491,50.21H461.13a5.6,5.6,0,0,0-4.23,1.47A5.92,5.92,0,0,0,455.49,56V95.62a5.94,5.94,0,0,0,1.41,4.28,5.6,5.6,0,0,0,4.23,1.46H491l.79,12.51q-5.4.45-11.6.73t-12.62.34q-6.42.06-12.73.06-7.44,0-12-4.34a14.92,14.92,0,0,1-4.56-11.33V52.24a14.88,14.88,0,0,1,4.56-11.38Q447.38,36.58,454.82,36.58ZM440.28,68.13h46.53V80.29H440.28Z" transform="translate(-4.37 -35.45)"/><path class="cls-1" d="M529.63,35.45q5.75,0,12.5.62a67.8,67.8,0,0,1,13.18,2.54L554.19,50c-3.31-.08-7.17-.15-11.61-.23s-8.78-.11-13.07-.11c-2.1,0-3.88.05-5.35.17a8.9,8.9,0,0,0-3.55.9,4.06,4.06,0,0,0-1.91,2.2,11.5,11.5,0,0,0-.56,4c0,2.63.61,4.55,1.85,5.75A16.89,16.89,0,0,0,526.36,66l15,4.84q9.36,3.15,13,8.56t3.61,14.2a33.09,33.09,0,0,1-1.58,11,14.14,14.14,0,0,1-5,6.87,21.81,21.81,0,0,1-8.9,3.55A72.76,72.76,0,0,1,529,116.12c-2.55,0-6.2-.17-10.93-.5a113.5,113.5,0,0,1-16.22-2.54l1.12-12.17q6.66.12,11.55.28c3.27.12,6.07.19,8.4.23s4.35,0,6.08,0a33.84,33.84,0,0,0,7-.56,5.15,5.15,0,0,0,3.55-2.25,9.46,9.46,0,0,0,1-4.85,10.67,10.67,0,0,0-.74-4.33,5.64,5.64,0,0,0-2.36-2.6A20,20,0,0,0,533,85.14l-15.78-5.41q-8.89-3.27-12.61-8.56t-3.72-14a31,31,0,0,1,1.63-11,13.86,13.86,0,0,1,5.07-6.59,21.92,21.92,0,0,1,8.9-3.27A82.17,82.17,0,0,1,529.63,35.45Z" transform="translate(-4.37 -35.45)"/><path class="cls-1" d="M595.65,35.45q5.75,0,12.51.62a67.94,67.94,0,0,1,13.18,2.54L620.21,50c-3.3-.08-7.17-.15-11.6-.23s-8.79-.11-13.07-.11c-2.11,0-3.89.05-5.35.17a8.81,8.81,0,0,0-3.55.9,4.11,4.11,0,0,0-1.92,2.2,11.73,11.73,0,0,0-.56,4q0,3.95,1.86,5.75A16.83,16.83,0,0,0,592.38,66l15,4.84q9.35,3.15,13,8.56t3.61,14.2a33.09,33.09,0,0,1-1.58,11,14.19,14.19,0,0,1-5,6.87,21.92,21.92,0,0,1-8.91,3.55A72.69,72.69,0,0,1,595,116.12q-3.83,0-10.92-.5a113.62,113.62,0,0,1-16.23-2.54L569,100.91q6.64.12,11.55.28c3.26.12,6.06.19,8.39.23s4.36,0,6.08,0a34,34,0,0,0,7-.56,5.13,5.13,0,0,0,3.54-2.25,9.46,9.46,0,0,0,1-4.85,10.86,10.86,0,0,0-.73-4.33,5.66,5.66,0,0,0-2.37-2.6A19.82,19.82,0,0,0,599,85.14l-15.77-5.41q-8.91-3.27-12.62-8.56t-3.72-14a31,31,0,0,1,1.63-11,13.86,13.86,0,0,1,5.07-6.59,21.92,21.92,0,0,1,8.9-3.27A82.26,82.26,0,0,1,595.65,35.45Z" transform="translate(-4.37 -35.45)"/></svg>