<svg width="540" height="113" viewBox="0 0 540 113" fill="none" xmlns="http://www.w3.org/2000/svg">
<path id="a" d="M61 62.7L60.8 73.3L24.8 73.5C21.2 73.6 18.8 74.5 17.4 76.2C16 77.9 15.3 80.3 15.3 83.3V88C15.3 91.8 16.2 94.5 18 96.2C19.8 97.9 22.7 98.8 26.7 98.8C29.6 98.8 32.9 98.3 36.5 97.2C40.1 96.1 43.7 94.4 47.4 92.2C51.1 90 54.3 87.1 57.3 83.7V93.6C56.3 95.1 54.7 96.8 52.6 98.8C50.5 100.8 48 102.8 45 104.7C42 106.6 38.7 108.1 35.1 109.4C31.5 110.7 27.6 111.3 23.3 111.3C18.7 111.3 14.7 110.5 11.2 108.9C7.7 107.3 5 104.9 3 101.7C1 98.5 0 94.6 0 90V81.7C0 75.7 1.9 71.1 5.7 67.8C9.5 64.5 14.8 62.8 21.6 62.8H61V62.7ZM40.9 31.5C46.7 31.5 51.7 32.3 55.7 33.8C59.7 35.3 62.7 37.9 64.8 41.6C66.8 45.3 67.9 50.3 67.9 56.6V109.8H55.9L53.6 93.2L52.7 91.3V56.5C52.6 52 51.5 48.8 49.5 46.8C47.5 44.8 43.5 43.8 37.7 43.8C33.7 43.8 28.7 44 22.7 44.4C16.7 44.8 10.8 45.2 4.9 45.7L3.5 34.9C7 34.3 11 33.7 15.3 33.2C19.6 32.7 24 32.3 28.5 31.9C33 31.7 37.2 31.5 40.9 31.5Z" fill="white"/>
<path id="s" d="M126 31.4C129.3 31.4 132.9 31.5 136.8 31.7C140.7 31.9 144.5 32.2 148.3 32.5C152.1 32.8 155.6 33.2 158.7 33.8L157.6 44.4C152.7 44.2 147.8 44 143 43.9C138.1 43.7 133.3 43.7 128.5 43.7C123.9 43.6 120.3 43.7 117.7 44C115.1 44.3 113.2 45.1 112.1 46.3C111 47.6 110.4 49.7 110.4 52.7C110.4 56.4 111.3 58.8 113.1 59.9C114.9 61.1 117.7 62 121.3 62.9L143.1 67.9C149.3 69.5 153.8 71.8 156.7 74.8C159.6 77.8 161.1 82.6 161.1 89.2C161.1 95.5 159.9 100.2 157.6 103.4C155.3 106.6 151.6 108.7 146.7 109.8C141.8 110.9 135.6 111.4 128.1 111.4C125.3 111.4 121.1 111.3 115.5 111.1C109.9 110.9 103.8 110.2 97.1 109.1L98.2 98.6C100.6 98.7 103.2 98.8 106 98.9C108.8 99 111.8 99.1 114.9 99.1C118 99.1 121.3 99.1 124.6 99.1C130.2 99.1 134.6 98.9 137.8 98.4C141 97.9 143.2 97 144.5 95.6C145.8 94.2 146.5 92.1 146.5 89.3C146.5 85.9 145.4 83.5 143.3 82.3C141.2 81.1 138.3 80.1 134.6 79.2L113.1 74.2C108.7 73.2 105.2 71.7 102.7 69.9C100.1 68.1 98.3 65.8 97.2 63C96.1 60.2 95.6 56.8 95.6 52.6C95.6 46.8 96.6 42.3 98.7 39.2C100.8 36.1 104 34 108.5 32.9C113 31.8 118.8 31.3 126 31.4Z" fill="white"/>
<path id="h" d="M203.6 0L203.8 29.6C203.8 33.2 203.7 36.5 203.4 39.6C203.1 42.7 202.7 45.5 202.1 47.9L203.7 50.1V109.6H188.7V0H203.6ZM236.3 31.4C250.2 31.4 257.1 38.4 257.1 52.4V109.7H241.8V56.8C241.8 52 241 48.7 239.5 46.9C238 45.1 235.3 44.2 231.4 44.2C227 44.2 222.6 45.2 218.1 47.3C213.6 49.3 208.2 52.3 202 56.3L201.2 46.3C207 41.7 212.9 38.1 218.8 35.5C224.8 32.7 230.6 31.4 236.3 31.4Z" fill="white"/>
<path id="e" d="M309.7 0.299993C314.9 0.899993 320.2 1.50001 325.6 2.10001C331 2.70001 336.3 3.40002 341.5 4.20002C346.7 5.00002 351.7 5.80001 356.4 6.60001L354.4 18.5L311.6 13.6C308.5 13.2 306.1 13.8 304.5 15.2C302.9 16.6 301.9 19 301.5 22.4L294.4 84.6C294 88 294.4 90.6 295.7 92.4C297 94.2 299.2 95.2 302.3 95.6L345.1 100.5L344.4 112.4C339.6 112.2 334.6 111.8 329.3 111.3C324 110.8 318.7 110.3 313.3 109.7C307.9 109.1 302.6 108.6 297.4 108C291 107.3 286.1 104.9 282.7 101C279.3 97.1 277.9 92.2 278.5 86.4L286.4 17C287.2 11.1 289.7 6.70002 293.8 3.70002C297.9 0.700017 303.2 -0.400007 309.7 0.299993ZM286.2 43.2L344.7 49.9L343.3 62L284.8 55.3L286.2 43.2Z" fill="#E21F26"/>
<path id="ss" d="M409.5 31.4C412.8 31.4 416.4 31.5 420.3 31.7C424.2 31.9 428 32.2 431.8 32.5C435.6 32.8 439.1 33.2 442.2 33.8L441.1 44.4C436.2 44.2 431.3 44 426.5 43.9C421.6 43.7 416.8 43.7 412 43.7C407.4 43.6 403.8 43.7 401.2 44C398.6 44.3 396.7 45.1 395.6 46.3C394.4 47.6 393.9 49.7 393.9 52.7C393.9 56.4 394.8 58.8 396.6 59.9C398.4 61.1 401.2 62 404.8 62.9L426.6 67.9C432.8 69.5 437.3 71.8 440.2 74.8C443.1 77.8 444.6 82.6 444.6 89.2C444.6 95.5 443.4 100.2 441.1 103.4C438.8 106.6 435.1 108.7 430.2 109.8C425.3 110.9 419.1 111.4 411.6 111.4C408.8 111.4 404.6 111.3 399 111.1C393.4 110.9 387.3 110.2 380.6 109.1L381.7 98.6C384.1 98.7 386.7 98.8 389.5 98.9C392.3 99 395.3 99.1 398.4 99.1C401.5 99.1 404.8 99.1 408.1 99.1C413.7 99.1 418.1 98.9 421.3 98.4C424.5 97.9 426.7 97 428 95.6C429.3 94.2 430 92.1 430 89.3C430 85.9 428.9 83.5 426.8 82.3C424.7 81.1 421.8 80.1 418.1 79.2L396.6 74.2C392.2 73.2 388.7 71.7 386.2 69.9C383.6 68.1 381.8 65.8 380.7 63C379.6 60.2 379.1 56.8 379.1 52.6C379.1 46.8 380.1 42.3 382.2 39.2C384.3 36.1 387.5 34 392 32.9C396.5 31.8 402.3 31.3 409.5 31.4Z" fill="white"/>
<path id="sss" d="M504 31.4C507.3 31.4 510.9 31.5 514.8 31.7C518.7 31.9 522.5 32.2 526.3 32.5C530.1 32.8 533.6 33.2 536.7 33.8L535.6 44.4C530.7 44.2 525.8 44 521 43.9C516.1 43.7 511.3 43.7 506.5 43.7C501.9 43.6 498.3 43.7 495.7 44C493.1 44.3 491.2 45.1 490.1 46.3C488.9 47.6 488.4 49.7 488.4 52.7C488.4 56.4 489.3 58.8 491.1 59.9C492.9 61.1 495.7 62 499.3 62.9L521.1 67.9C527.3 69.5 531.8 71.8 534.7 74.8C537.6 77.8 539.1 82.6 539.1 89.2C539.1 95.5 537.9 100.2 535.6 103.4C533.3 106.6 529.6 108.7 524.7 109.8C519.8 110.9 513.6 111.4 506.1 111.4C503.3 111.4 499.1 111.3 493.5 111.1C487.9 110.9 481.8 110.2 475.1 109.1L476.2 98.6C478.6 98.7 481.2 98.8 484 98.9C486.8 99 489.8 99.1 492.9 99.1C496 99.1 499.3 99.1 502.6 99.1C508.2 99.1 512.6 98.9 515.8 98.4C519 97.9 521.2 97 522.5 95.6C523.8 94.2 524.5 92.1 524.5 89.3C524.5 85.9 523.4 83.5 521.3 82.3C519.2 81.1 516.3 80.1 512.6 79.2L491.1 74.2C486.7 73.2 483.2 71.7 480.7 69.9C478.1 68.1 476.3 65.8 475.2 63C474.1 60.2 473.6 56.8 473.6 52.6C473.6 46.8 474.6 42.3 476.7 39.2C478.8 36.1 482 34 486.5 32.9C491 31.8 496.8 31.3 504 31.4Z" fill="white"/>
</svg>
